<?xml version="1.0" standalone="no"?>
<!DOCTYPE svg PUBLIC "-//W3C//DTD SVG 20010904//EN"
 "http://www.w3.org/TR/2001/REC-SVG-20010904/DTD/svg10.dtd">
<svg version="1.0" xmlns="http://www.w3.org/2000/svg"
 width="1216.000000pt" height="1216.000000pt" viewBox="0 0 1216.000000 1216.000000"
 preserveAspectRatio="xMidYMid meet">
<metadata>
Created by potrace 1.14, written by Peter Selinger 2001-2017
</metadata>
<g transform="translate(0.000000,1216.000000) scale(0.100000,-0.100000)"
fill="#000000" stroke="none">
<path d="M5120 8960 c-1754 -1754 -3190 -3191 -3190 -3193 0 -2 16 -4 37 -5
20 -2 40 -5 45 -8 4 -3 8 0 8 6 0 6 4 8 10 5 5 -3 51 -6 102 -5 133 1 171 0
179 -6 4 -2 10 0 13 4 3 5 25 6 49 2 23 -3 54 -3 68 0 13 4 32 4 41 1 9 -3 53
-4 98 -1 44 3 80 2 80 -1 0 -4 18 -3 40 1 22 4 42 4 45 0 3 -4 23 -4 45 0 22
4 40 4 40 0 0 -4 17 -4 38 -1 20 4 48 4 62 1 14 -3 44 -3 68 0 23 4 45 4 47 0
2 -4 25 -4 50 0 25 4 45 4 45 0 0 -4 18 -4 40 0 22 4 42 4 45 0 3 -4 23 -4 45
0 22 4 40 4 40 0 0 -4 17 -4 38 -1 20 4 48 4 62 1 14 -3 44 -3 68 0 23 4 45 4
47 0 2 -4 25 -4 50 0 25 4 45 4 45 1 0 -7 109 -5 116 2 3 3 18 2 32 -2 15 -5
36 -5 46 -1 11 3 39 3 63 0 24 -4 46 -3 49 2 3 4 10 6 15 2 13 -8 226 -7 239
1 5 3 10 3 10 -2 0 -4 24 -7 52 -5 76 4 139 3 148 -3 5 -3 11 -1 15 5 4 6 11
8 16 4 13 -8 226 -7 239 1 5 3 10 3 10 -2 0 -4 24 -7 52 -5 76 4 139 3 148 -3
5 -3 11 -1 14 3 3 5 25 6 49 2 23 -3 54 -3 68 0 13 4 33 4 43 0 11 -3 38 -4
60 0 23 3 57 3 76 0 19 -3 49 -3 65 0 17 3 44 3 60 0 17 -4 39 -4 50 0 11 4
32 4 46 0 15 -4 32 -4 39 0 7 4 24 4 39 0 14 -4 35 -4 46 0 11 4 32 4 46 0 15
-4 32 -4 38 0 7 4 29 4 49 1 20 -4 51 -4 67 -1 17 3 49 3 73 -1 23 -3 45 -3
47 1 2 4 24 4 47 0 24 -3 57 -3 73 0 17 3 50 3 74 0 39 -4 42 -7 28 -19 -10
-7 -17 -17 -17 -22 0 -8 -58 -99 -70 -109 -3 -3 -14 -22 -25 -42 -11 -21 -22
-38 -26 -38 -4 0 -9 -8 -13 -17 -5 -17 -21 -43 -39 -67 -11 -15 -97 -148 -177
-275 -36 -56 -72 -111 -81 -121 -8 -10 -24 -35 -34 -54 -11 -20 -23 -36 -27
-36 -5 0 -8 -5 -8 -11 0 -6 -22 -45 -50 -85 -27 -40 -50 -78 -50 -84 0 -5 -4
-10 -10 -10 -5 0 -10 -5 -10 -10 0 -6 -4 -16 -10 -23 -15 -18 -80 -118 -80
-123 0 -3 -5 -10 -11 -17 -9 -11 -95 -142 -273 -419 -43 -68 -102 -159 -131
-203 -28 -44 -80 -123 -113 -175 -34 -52 -66 -102 -72 -110 -6 -8 -26 -40 -45
-70 -19 -30 -39 -60 -45 -67 -5 -7 -10 -17 -10 -23 0 -5 -4 -10 -10 -10 -5 0
-10 -4 -10 -10 0 -5 -26 -49 -58 -97 -32 -48 -77 -117 -100 -153 -23 -36 -46
-72 -52 -80 -5 -8 -37 -58 -71 -110 -162 -251 -274 -424 -379 -585 -36 -55
-69 -108 -75 -117 -5 -9 -53 -83 -105 -163 -52 -80 -99 -153 -105 -162 -5 -10
-13 -22 -18 -27 -4 -6 -32 -49 -62 -96 -30 -47 -59 -92 -64 -100 -6 -8 -26
-39 -46 -69 -19 -29 -35 -57 -35 -62 0 -5 -4 -9 -10 -9 -5 0 -10 -5 -10 -10 0
-6 -16 -33 -35 -60 -19 -27 -35 -54 -35 -60 0 -5 -3 -10 -8 -10 -4 0 -18 -20
-32 -45 -14 -25 -28 -45 -32 -45 -5 0 -8 -7 -8 -15 0 -8 -4 -15 -10 -15 -5 0
-10 -5 -10 -10 0 -6 -27 -51 -60 -100 -33 -49 -60 -94 -60 -100 0 -5 -4 -10
-10 -10 -5 0 -10 -5 -10 -10 0 -6 -5 -16 -10 -23 -6 -7 -44 -64 -85 -127 -40
-63 -77 -119 -82 -125 -4 -5 -17 -27 -28 -47 -11 -21 -23 -38 -27 -38 -5 0 -8
-4 -8 -10 0 -5 -16 -32 -35 -59 -19 -26 -35 -51 -35 -54 0 -4 -18 -32 -39 -64
-101 -150 -200 -303 -195 -303 6 0 20 12 87 75 29 28 90 83 135 124 45 40 94
85 110 100 15 14 59 54 97 89 61 56 194 178 275 252 15 14 62 57 104 95 43 39
99 90 126 115 26 25 80 75 120 110 39 36 91 83 114 105 42 39 205 189 258 237
14 13 68 62 119 108 50 47 104 96 119 110 163 149 208 190 240 220 21 19 77
71 125 115 48 44 100 91 115 105 15 14 69 63 120 110 51 47 105 96 120 110 15
14 67 61 115 105 49 44 110 100 136 125 26 25 76 70 110 100 34 30 83 75 109
100 26 25 87 81 135 125 49 44 100 91 115 105 88 81 205 188 229 210 15 14 71
66 126 115 131 119 186 170 247 227 27 27 51 48 53 48 1 0 23 19 47 42 40 38
107 100 286 263 30 28 71 66 92 85 21 19 77 71 126 115 49 44 105 97 126 118
20 20 39 37 41 37 3 0 25 19 49 43 51 48 195 180 372 341 43 39 93 85 110 101
37 34 227 209 262 240 12 12 64 59 115 105 50 47 104 96 119 110 40 36 185
169 229 210 21 19 82 76 136 125 54 50 106 97 116 106 10 9 62 56 115 105 106
98 111 102 245 224 51 47 113 104 137 127 25 24 46 43 48 43 1 0 26 23 54 50
28 28 53 50 54 50 2 0 24 19 48 43 25 23 84 78 133 122 102 93 111 101 240
220 54 50 110 101 125 115 15 14 67 61 115 105 48 44 100 91 115 105 15 14 64
59 109 100 46 41 94 85 107 98 21 18 23 23 9 28 -8 4 -27 4 -40 2 -14 -3 -25
-2 -25 2 0 4 -15 5 -32 1 -18 -4 -44 -5 -58 -1 -14 4 -34 4 -44 0 -11 -4 -36
-4 -56 0 -21 4 -60 4 -89 0 -28 -3 -53 -5 -56 -2 -6 6 -125 8 -125 2 0 -3 -47
-3 -105 0 -58 3 -105 3 -105 0 0 -4 -111 -4 -130 0 -9 2 -466 1 -475 -1 -6 -1
-14 -1 -20 0 -5 1 -136 1 -290 1 -154 -1 -287 -1 -295 -1 -74 2 -93 2 -97 -2
-2 -3 -17 -2 -31 2 -15 5 -36 5 -46 1 -11 -4 -36 -4 -56 0 -21 4 -60 4 -89 0
-28 -3 -53 -5 -56 -2 -6 6 -125 8 -125 2 0 -3 -47 -3 -105 0 -58 3 -105 3
-105 0 0 -4 -111 -4 -130 0 -9 2 -466 1 -475 -1 -6 -1 -14 -1 -20 0 -5 1 -136
1 -290 1 -154 -1 -287 -1 -295 -1 -8 0 -33 0 -55 0 -22 0 -47 0 -55 0 -8 0
-48 1 -87 1 -43 0 -73 4 -73 10 0 5 5 10 10 10 6 0 10 5 10 12 0 6 13 39 29
72 63 131 104 222 107 235 1 7 7 18 13 24 6 6 11 19 11 28 0 10 3 19 8 21 4 2
20 32 36 68 15 36 32 72 37 80 5 8 13 24 18 35 14 32 65 143 106 230 47 101
94 201 135 290 18 39 52 113 77 165 25 52 58 122 73 155 15 33 47 101 70 150
24 50 55 117 70 150 15 33 47 101 70 150 67 142 143 309 160 347 5 13 14 30
19 38 5 8 18 35 29 60 23 50 94 202 154 330 22 47 51 110 65 140 13 30 33 71
44 91 10 20 19 43 19 50 0 7 6 20 13 28 7 9 28 50 47 91 18 41 52 113 74 160
22 47 40 87 41 90 1 6 35 78 96 207 27 55 63 132 80 170 64 139 158 340 209
448 21 44 52 112 70 150 18 39 47 102 65 140 18 39 51 111 74 160 23 50 55
116 71 148 15 31 26 57 24 57 -2 0 -1439 -1435 -3194 -3190z"/>
</g>
</svg>
