<svg width="29" height="30" viewBox="0 0 29 30" fill="none" xmlns="http://www.w3.org/2000/svg">
<mask id="mask0_26_21" style="mask-type:alpha" maskUnits="userSpaceOnUse" x="0" y="0" width="29" height="30">
<path d="M28.5 15.2143C28.5 22.9463 22.232 29.2143 14.5 29.2143C6.76801 29.2143 0.5 22.9463 0.5 15.2143C0.5 7.48231 6.76801 1.21429 14.5 1.21429C22.232 1.21429 28.5 7.48231 28.5 15.2143Z" fill="black" stroke="#312DFF"/>
</mask>
<g mask="url(#mask0_26_21)">
<path d="M11.5714 9.7143V8.42859" stroke="black"/>
<path d="M28.5 15.2143C28.5 22.9463 22.232 29.2143 14.5 29.2143C6.76801 29.2143 0.5 22.9463 0.5 15.2143C0.5 7.48231 6.76801 1.21429 14.5 1.21429C22.232 1.21429 28.5 7.48231 28.5 15.2143Z" fill="black" stroke="#312DFF"/>
<circle cx="14.1429" cy="14.8571" r="7.71428" fill="#36A9EA"/>
<path d="M27.7126 17.4011C23.2818 22.4183 13.3478 25.4004 8.93463 26.2643" stroke="#63C84A"/>
<path d="M27.1522 19.2154C22.8043 23.8539 12.9767 26.6269 8.60638 27.4337" stroke="#63C84A"/>
<path d="M9.08837 12.427L24.3231 13.7466L24.0568 15.5549L9.08837 12.427Z" fill="#515EDA"/>
<path d="M9.16038 22.8066L18.4472 0.27678L23.1973 2.88667L9.16038 22.8066Z" fill="#4643E9"/>
<rect x="2.57141" y="20.2857" width="1.28571" height="1.28571" fill="#4643E9"/>
<rect x="3.57141" y="21.5714" width="1.28571" height="1.28571" fill="#378612"/>
<rect x="1.28571" y="19" width="1.28571" height="1.28571" fill="#36A9EA"/>
</g>
</svg>
